PathFileType	4	(X/Y/Z)	Patient4_TMGait_0pt3_02_right_17.trc.trc
DataRate	CameraRate	NumFrames	NumMarkers	Units	OrigDataRate	OrigDataStartFrame	OrigNumFrames
49.645390070922	49.645390070922	4	33	mm	49.645390070922	89	       141
Frame#	Time	Sacral			L.Shoulder			Chest			R.Shoulder			Neck			R.ASIS			L.ASIS			R.Thigh.Superior			R.Thigh.Lateral			R.Thigh.Inferior			R.Patella			L.Thigh.Superior			L.Thigh.Lateral			L.Thigh.Inferior			L.Patella			L.Shank.Superior			L.Shank.Lateral			L.Shank.Inferior			R.Shank.Superior			R.Shank.Lateral			R.Shank.Inferior			R.Heel			R.Midfoot.Superior			R.Midfoot.Lateral			R.Toe			L.Heel			L.Midfoot.Lateral			L.Midfoot.Superior			L.Toe			L.Elbow			L.Wrist			R.Elbow			R.Wrist			
		X1	Y1	Z1	X2	Y2	Z2	X3	Y3	Z3	X4	Y4	Z4	X5	Y5	Z5	X6	Y6	Z6	X7	Y7	Z7	X8	Y8	Z8	X9	Y9	Z9	X10	Y10	Z10	X11	Y11	Z11	X12	Y12	Z12	X13	Y13	Z13	X14	Y14	Z14	X15	Y15	Z15	X16	Y16	Z16	X17	Y17	Z17	X18	Y18	Z18	X19	Y19	Z19	X20	Y20	Z20	X21	Y21	Z21	X22	Y22	Z22	X23	Y23	Z23	X24	Y24	Z24	X25	Y25	Z25	X26	Y26	Z26	X27	Y27	Z27	X28	Y28	Z28	X29	Y29	Z29	X30	Y30	Z30	X31	Y31	Z31	X32	Y32	Z32	X33	Y33	Z33	

89	33.722571428571	707.767361451549	1007.661419896335	505.343473827133	868.662630188556	1424.911903371683	294.861106455000	996.541793375903	1353.121892530993	436.286530192030	948.082206047328	1434.573872735689	618.471916058307	880.174331721867	1488.583746158685	451.472721488528	945.395998254780	930.260662473598	596.934622399858	903.734515082974	954.792453607748	326.601835810752	936.045134982867	718.201772403685	575.335341573992	832.797172090004	626.059903563218	642.434153950091	892.341538348265	557.226843676424	563.755338131094	868.623331486518	464.264382689138	574.608078743671	978.173978410393	762.674526508082	367.338551977158	914.470023049862	632.403330639320	303.474170161989	1012.802129624095	570.614718200596	367.548703680584	1026.175374031061	496.946056017665	372.233750757891	997.798981435284	422.439527782740	364.536262446952	910.073123831571	307.640114549086	313.145899506666	962.391226474829	195.380756345378	379.296548081834	808.623137818072	389.371743786337	583.180945372311	706.393541206970	318.204242512766	649.574479054727	713.085373421451	212.838603368281	590.066747263011	532.109058407760	84.176099289935	565.618444631049	711.586322097841	103.270211284438	599.634462827565	613.628876034663	56.325574764730	636.619400696030	817.949438174278	36.309799814743	621.830891904142	832.938116424002	40.459462348431	416.252443386239	907.596472762239	37.777926282921	336.838421059594	992.226112169330	97.161778494251	364.506995462372	1119.342128549420	41.263711568028	335.376033188846	763.678856953689	1088.451141283215	188.235518830165	844.141632924970	839.804190028178	204.752970579965	1135.634984898196	1153.336159341547	725.352978603818	1391.766967044117	1111.656967798173	711.746253204795	
90	33.742714285714	708.086732492912	1007.826583147163	499.149159144298	872.187210405831	1425.278429797012	290.712812671744	998.069930575989	1353.165329907366	433.727887884861	947.447301830865	1434.430907953898	615.443891487860	881.568598118836	1488.833098625410	447.591178878131	944.683415112594	930.605562626186	592.947763481423	905.663017506881	954.713831897031	322.317976281462	936.560529546281	718.575599984301	572.506077447131	833.480451595688	626.395592439220	639.605850966991	894.181959207110	557.073899682818	561.970210379761	870.823929699057	463.197683179465	574.083800493151	979.064766126083	762.014852105398	363.712028321727	914.926557399131	631.688698759251	300.662671774141	1012.827548703711	569.742782997233	365.277393337388	1025.818657668555	495.825648449995	370.358897724326	996.429835204845	421.274936965426	363.084130459438	907.403059278636	307.281980313616	312.129939757051	958.108449652309	194.842180713371	378.923998199821	809.132527918289	389.245704992422	582.526426581940	705.187921751973	320.286618814734	648.552172575442	710.682679749687	214.219012207479	590.161247084849	527.506580812342	88.443036557304	566.121980701821	707.455580062577	103.684038681117	599.967796787026	608.542508600392	58.544121909222	636.906694206326	812.188256576162	36.298641676066	621.742315304410	826.943366166804	40.618389117679	416.318020637032	901.584804324101	37.842719270531	336.918068512176	986.319404236279	97.100268594898	364.552096857640	1113.354018257136	40.905732591482	335.316631341385	774.777998835775	1087.396152985230	179.812786797227	859.408982167053	840.149745316333	196.175913692071	1126.214865855811	1145.963265438974	723.869813016043	1378.902142871059	1085.580603769646	716.300604668176	
91	33.762857142857	708.298876405346	1007.812266117215	493.027833088912	875.601602521865	1425.586586386987	286.718534113974	999.415064135399	1353.096950013790	431.302832011371	946.619227310713	1434.086951663727	612.555642752968	882.845686650651	1488.963977356063	443.855630422521	943.890412615564	930.857256785927	588.875597648900	907.396344223038	954.575508623901	318.008163256175	937.520253848301	718.882456312926	569.524372115277	834.967252436395	626.418384011523	636.692602867485	896.931962844297	556.762782888098	560.018785112992	874.086921216130	461.840391654601	573.534503244029	979.777957337883	761.227447377384	360.018649717136	915.215349851005	630.869002078727	297.837265897541	1012.634265749626	568.776906130406	363.047677783530	1025.199700204634	494.630860298789	368.548289755732	994.859382205670	420.056247105326	361.668058730384	904.610579559561	306.850088619492	311.081825467074	953.717612226844	194.273866218671	378.546251769275	810.600284283482	388.920128338562	581.887371454768	704.839931476225	322.414694713031	647.515426881785	708.891734788007	215.666227358093	590.277327153217	523.292217175339	93.357766062583	566.716313460496	703.599976678458	104.075181152432	600.338424121165	603.669719942732	61.159611181748	637.278622818519	806.390544113665	36.263045982687	621.676803793153	820.929446279201	40.738682273576	416.350010409582	895.562795320419	37.877327776582	336.962877206941	980.380245606934	97.039383860429	364.574613158987	1107.351691668016	40.616825540977	335.260673598235	786.514922483936	1086.314227145694	171.571298834630	875.152003319042	840.499226791746	187.845831747418	1115.066968848048	1137.997476125839	722.698999255731	1362.629220105196	1058.696772581966	721.134251213683	
92	33.783000000000	708.368520119927	1007.577074629337	486.981137539739	878.886948755747	1425.797660100398	282.903981581188	1000.565016110985	1352.871396074147	429.027985375269	945.575893736607	1433.485112486223	609.826590826482	883.993836670903	1488.922081238545	440.309893653307	943.012680630157	930.968754667062	584.750483296435	908.927261774485	954.333674889941	313.697815276602	938.986560276121	719.103052988451	566.383301746956	837.370288972763	626.090893820646	633.688984445445	900.716807931863	556.292675761321	557.865471253119	878.539719521890	460.198275777461	572.890570934320	980.351946824720	760.309491340515	356.318130907228	915.419982871514	629.929358058681	295.023294796885	1012.304812033325	567.713914235786	360.908001867949	1024.416704970499	493.346560495582	366.851455208354	993.168788916489	418.759593233921	360.324552706044	901.764773376843	306.338394130160	310.018672979198	949.235545487642	193.651591968899	378.184460210987	813.166289971545	388.390308401885	581.216264750591	705.508477891409	324.627994600574	646.441829041765	707.840094961000	217.240665525139	590.392576445790	519.623946212202	99.136425818734	567.372280000901	700.081017226416	104.504273494899	600.744566805553	599.085759178479	64.349647485703	637.720832890289	800.515714217500	36.169094928883	621.655817796732	814.894667162479	40.806719756960	416.346150126781	889.528681971300	37.877069049684	336.971167065354	974.404222723803	96.976261464593	364.583742917465	1101.337021182563	40.394244110989	335.212782732832	798.778228082300	1085.257739293751	163.548540906350	891.462222387091	840.965470442433	179.821576362865	1102.143112550526	1129.551937621109	721.734478412838	1342.858755091832	1031.357713688795	726.069953331727	
